<svg version="1.0" xmlns="http://www.w3.org/2000/svg" width="1600" height="1600" viewBox="0 0 1200 1200"><path d="M390.5 240.7c-28.2 2.4-55 10-79.9 22.5-62.6 31.3-105.2 90.2-116.3 160.9-2.4 15.5-2.4 53.1.1 70.9 5.1 37.1 15.1 66.8 33.2 98.7 34.3 60.5 95.8 125.7 214.2 227.5C485.5 858.8 598.4 952 600.1 952c.6 0 5-3.3 9.7-7.3 4.8-4 20-16.5 33.7-27.7C810.6 780.6 895.1 701.7 944 636.5c37.1-49.5 54.5-89.5 61.6-141.5 2.5-17.9 2.5-55.5.1-70.9-7.3-46.3-27.2-86.5-59-119-33.5-34.2-74.7-55.2-122.9-62.8-15.9-2.5-49.8-2.4-66.3.1-56.4 8.6-103.8 36.3-150.3 88l-7.2 8-7.6-8.5c-50.8-55.9-99.7-82.7-162.3-88.9-9.6-.9-30.5-1.1-39.6-.3zm37.3 48.4c22.2 2.4 41.4 7.9 60.4 17.4 31.3 15.6 55.1 36.9 98.8 88.5 6.7 8 12.6 14.5 13 14.5.4 0 6-6.3 12.6-14 43.6-51.5 67.7-73.2 98.9-88.8 19.4-9.7 38.3-15.2 60.7-17.6 80-8.8 154 37.9 178.8 112.8 7.1 21.3 9.6 40 8.6 64.1-3.6 91-51.9 160.9-202.1 292.6-44.3 38.8-156 131.7-157.7 131.2-2.1-.8-97.1-79.4-130.8-108.3-78.6-67.4-130.4-117.9-163.8-159.3-45.5-56.7-65.2-106.6-65.2-165.4 0-85.3 61.3-155.8 145.5-167.2 12.5-1.7 29.6-1.9 42.3-.5z"/></svg>