<svg version="1.0" xmlns="http://www.w3.org/2000/svg" width="1600" height="840" viewBox="0 0 1200 630"><path d="M399 12c-33.7 7.2-57.7 28.3-68.5 60.1-7.6 22.3-5.5 51 5.4 72.7 25.4 50.6 94.3 65.1 137.9 29 2.6-2.1 5-3.8 5.4-3.8.5 0 5.2 2.5 10.6 5.7 5.3 3.1 16.9 9.8 25.7 14.8 8.8 5.1 23 13.2 31.5 18.2 17.1 9.9 43 24.8 58.5 33.8 5.5 3.2 17.4 10.1 26.5 15.3 9.1 5.3 19 11 22 12.7 3 1.8 13.2 7.6 22.5 12.9 9.4 5.4 17.6 10.3 18.3 11 1.1 1.1 1.1 2.2.2 5.5-1.4 5.4-1.4 29.1.1 34.1.7 2.2 1 4.1.8 4.3-.2.2-6 3.6-12.9 7.7s-15.9 9.4-20 11.9c-4.1 2.4-12.2 7.2-18 10.6-25.8 15.2-77.9 46-82 48.5-2.5 1.5-12.4 7.4-22 13s-19.5 11.5-22 13c-15.5 9.5-39 23-39.9 23-.6 0-2.8-1.5-4.8-3.3-23.5-20.8-61.5-26.3-91.4-13.2-15 6.6-28.3 17.2-37.5 30.2-24.6 34.2-21 82.8 8.2 112.7 37.9 38.8 99.7 36.1 133-5.8 11.3-14.1 17.7-29.9 19.2-46.4.7-8.7.1-21.9-1.3-27.8-.6-2.9-.4-3.3 3.7-5.6 2.3-1.4 20.5-12.1 40.3-23.8 19.8-11.7 40.7-24.1 46.5-27.5 13.4-7.9 26-15.3 38-22.5 5.2-3.2 17.4-10.3 27-16 9.6-5.7 27.3-16.1 39.3-23.2l21.8-13 3.7 3.4c9 8.1 20.9 14.5 33.7 18 10.3 2.9 30.5 3.5 42 1.3 33.4-6.2 59-29 69.5-62 5.8-18.1 5.3-41.9-1.2-60.4-9.6-27.2-31.5-46.9-59.8-53.8-10.5-2.5-36.7-2.5-46 .1-13.4 3.7-26.4 10.4-34.9 18.1l-4 3.7-22.8-13.2c-12.5-7.3-25.7-14.9-29.3-17-3.6-2.1-13.7-7.9-22.5-13s-18.9-10.9-22.5-13c-12.5-7.3-56.7-32.8-80.5-46.5-42.4-24.4-39.7-22.6-39-26 1.4-6 2-18.2 1.3-27.5C505 45.1 466 9.9 417 10.1c-5.3 0-13.3.9-18 1.9z"/></svg>